<svg width="208" height="208" viewBox="0 0 208 208" fill="none" xmlns="http://www.w3.org/2000/svg">
<path d="M31.6846 0.72168H176.213C193.299 0.721916 207.175 14.5958 207.175 31.6855V176.216C207.175 193.302 193.302 207.178 176.213 207.179H31.6846C14.5986 207.179 0.721901 193.305 0.72168 176.216V31.6855C0.72168 14.5956 14.595 0.721726 31.6846 0.72168Z" fill="#F9F9F9" stroke="black" stroke-width="1.44373"/>
<path d="M73.5075 59.2391L68.0605 36.4259H72.7763L76.2152 52.0953L80.3853 36.4259H85.8637L89.8623 52.3612L93.3642 36.4259H97.9995L92.4616 59.2391H87.5744L83.03 42.1843L78.5032 59.2391H73.5075Z" fill="#FF3A2F"/>
<path d="M100.347 59.2389V36.4257H117.261V40.2844H104.954V45.3431H116.408V49.1879H104.954V55.3976H117.699V59.2424H100.35L100.347 59.2389Z" fill="#FF3A2F"/>
<path d="M121.589 36.4256H130.006C131.906 36.4256 133.35 36.5726 134.347 36.8629C135.687 37.2582 136.831 37.9579 137.786 38.962C138.741 39.9695 139.465 41.201 139.966 42.6563C140.463 44.1151 140.711 45.9098 140.711 48.0474C140.711 49.926 140.477 51.5423 140.011 52.9032C139.441 54.5614 138.626 55.9048 137.569 56.9334C136.772 57.71 135.691 58.3187 134.333 58.7525C133.315 59.0744 131.958 59.2353 130.258 59.2353H121.592V36.4221L121.589 36.4256ZM126.193 40.2844V55.394H129.632C130.919 55.394 131.846 55.3206 132.416 55.1771C133.161 54.9917 133.784 54.6734 134.277 54.2291C134.771 53.7848 135.173 53.0501 135.484 52.0286C135.796 51.007 135.95 49.6147 135.95 47.8515C135.95 46.0883 135.796 44.7344 135.484 43.7898C135.173 42.8452 134.736 42.1105 134.176 41.5788C133.616 41.0505 132.906 40.6902 132.045 40.5048C131.402 40.3578 130.142 40.2879 128.264 40.2879H126.193V40.2844Z" fill="#FF3A2F"/>
<path d="M80.5947 181.901C74.0805 181.901 68.3355 180.724 63.3594 178.372C58.4738 175.929 54.493 172.401 51.4169 167.787C48.4312 163.172 46.5765 157.608 45.8527 151.094H57.5239C58.5191 157.88 61.0071 163.082 64.9879 166.701C68.9688 170.32 74.2163 172.129 80.7304 172.129C86.8826 172.129 91.7229 170.501 95.2514 167.244C98.7799 163.987 100.544 159.554 100.544 153.944C100.544 148.063 98.8251 143.314 95.3871 139.695C91.9491 135.985 87.3349 134.13 81.5446 134.13H69.3307V124.631H81.1375C86.385 124.631 90.5468 123.138 93.6229 120.152C96.7895 117.076 98.3727 113.005 98.3727 107.938C98.3727 102.6 96.699 98.4838 93.3515 95.5886C90.0944 92.6935 85.6612 91.2459 80.0518 91.2459C74.5329 91.2459 69.8283 92.8744 65.9379 96.1315C62.0475 99.298 59.7405 103.867 59.0167 109.838H47.2098C47.7527 104.048 49.4717 99.0719 52.3669 94.9101C55.262 90.6578 59.1071 87.3555 63.9023 85.0032C68.7878 82.6509 74.2615 81.4747 80.3232 81.4747C86.204 81.4747 91.4063 82.5152 95.93 84.5961C100.454 86.677 103.982 89.6626 106.515 93.553C109.049 97.3529 110.315 101.831 110.315 106.988C110.315 111.602 109.275 115.674 107.194 119.202C105.113 122.731 102.263 125.49 98.6442 127.481C95.1157 129.471 91.0444 130.466 86.4302 130.466L85.6159 127.616C91.1348 127.616 95.8847 128.792 99.8656 131.145C103.937 133.407 107.058 136.528 109.23 140.509C111.491 144.49 112.622 149.104 112.622 154.351C112.622 159.78 111.265 164.575 108.551 168.737C105.837 172.898 102.082 176.155 97.2871 178.508C92.492 180.77 86.9278 181.901 80.5947 181.901ZM144.55 180.543V93.9601L147.4 94.6386C146.315 97.0814 144.234 99.5242 141.158 101.967C138.082 104.41 134.508 106.536 130.436 108.345C126.456 110.155 122.339 111.376 118.087 112.01V101.56C122.339 100.836 126.41 99.5695 130.301 97.76C134.191 95.9505 137.629 93.7791 140.615 91.2459C143.691 88.6221 145.953 85.8175 147.4 82.8318H155.407V180.543H144.55Z" fill="#0F172A"/>
</svg>
