<svg width="204" height="208" viewBox="0 0 204 208" fill="none" xmlns="http://www.w3.org/2000/svg">
<g clip-path="url(#clip0_20_282)">
<path d="M72.8712 88.8675C75.5196 80.8967 83.4046 79.8312 88.3202 82.5769C91.1492 84.1547 92.6941 87.3512 92.4332 90.6297C92.0922 94.8097 89.3836 97.3916 85.3508 98.4366C82.9632 99.0718 79.9938 98.8669 77.225 98.8669V108.088H81.9199C83.8661 108.088 85.7922 108.374 87.638 109.051C92.5737 110.854 95.0215 114.481 94.4597 119.665C94.3192 120.976 93.918 122.267 93.2157 123.394C88.7014 130.525 75.0782 131.017 71.3664 118.026L62.1772 122.021C66.812 139.827 89.9855 143.167 100.358 131.18C103.388 127.677 104.913 123.087 104.873 118.415C104.833 111.673 101.261 106.735 94.5801 103.375V102.74C100.318 99.3791 103.248 94.1745 102.485 86.5111C100.98 75.9789 90.4871 71.0612 81.0973 71.7989C73.3928 72.4136 66.7718 76.86 63.6419 84.9538L72.8712 88.847V88.8675Z" fill="#407BFB"/>
<path d="M130.574 73.2742L112.336 86.6955L117.372 94.5434L127.605 86.9824V136.713H137.476V73.2742H130.574Z" fill="#407BFB"/>
<path d="M203.566 49.4232H155.172V158.474H203.566V49.4232Z" fill="#FFBF00"/>
<path d="M155.172 207.897H155.533L203.566 158.822V158.474H155.172V207.897Z" fill="#F33D22"/>
<path d="M48.3936 94.9327V49.4232H155.172V0H15.0076C6.72133 0 0 6.86433 0 15.3269V158.474H48.3936V94.9532V94.9327Z" fill="#407BFB"/>
<path d="M203.566 49.4232V15.3269C203.566 6.86433 196.845 0 188.558 0H155.152V49.4232H203.546H203.566Z" fill="#005AE0"/>
<path d="M155.172 158.474H48.3936V207.897H155.172V158.474Z" fill="#00AB4A"/>
<path d="M0 158.474V192.591C0 201.053 6.72133 207.918 15.0076 207.918H48.4136V158.494H0V158.474Z" fill="#00861F"/>
</g>
<defs>
<clipPath id="clip0_20_282">
<rect width="203.566" height="207.897" fill="white"/>
</clipPath>
</defs>
</svg>
