<svg width="283" height="58" viewBox="0 0 283 58" fill="none" xmlns="http://www.w3.org/2000/svg">
<path d="M37.9644 34.7639V47.9178C37.9644 54.6393 34.2249 58 29.5951 58H27.4939C22.5792 58 18.9822 54.6754 18.9822 47.9178V41.5576C18.9822 39.6062 17.4508 38.0523 15.5277 38.0162H9.93627C3.41893 38.0162 0 34.3664 0 29.3794V28.3676C0 23.5975 3.41893 19.8031 9.93627 19.8031H15.5277C17.4508 19.8031 18.9822 18.2492 19.0178 16.2978V10.0822C19.0178 3.39688 22.6148 0 27.5295 0H29.6307C34.3318 0 38 3.39688 38 10.0822V34.7639H37.9644Z" fill="#FFBD86"/>
<path d="M63.5394 40.3457C63.5394 40.4741 63.5394 40.6026 63.4752 40.6989C63.411 40.7952 63.3147 40.8595 63.122 40.9237C62.9293 40.9879 62.6724 41.02 62.2871 41.0521C61.9338 41.0521 61.42 41.0843 60.8099 41.0843C60.1997 41.0843 59.8786 41.0843 59.5575 41.0521C59.2364 41.0521 59.0116 40.9879 58.8189 40.9237C58.6262 40.8595 58.4978 40.7631 58.4335 40.6668C58.3693 40.5705 58.3051 40.442 58.2409 40.2814L56.0572 34.8544C55.8003 34.2443 55.5434 33.6984 55.2865 33.2167C55.0296 32.735 54.7406 32.3496 54.4516 32.0285C54.1305 31.7074 53.7772 31.4826 53.3919 31.2899C52.9744 31.1294 52.5248 31.033 52.011 31.033H50.4696V40.3136C50.4696 40.442 50.4375 40.5383 50.3412 40.6668C50.2448 40.7631 50.1164 40.8595 49.9237 40.9237C49.731 40.9879 49.4741 41.0521 49.1851 41.0843C48.864 41.1164 48.4786 41.1485 47.9648 41.1485C47.451 41.1485 47.0978 41.1485 46.7767 41.0843C46.4556 41.02 46.1987 40.9879 46.006 40.9237C45.8133 40.8595 45.6849 40.7952 45.6206 40.6668C45.5564 40.5705 45.4922 40.442 45.4922 40.3136V18.2201C45.4922 17.6742 45.6206 17.2567 45.9096 17.0319C46.1987 16.8072 46.5519 16.6787 46.9694 16.6787H53.2634C53.9057 16.6787 54.4195 16.6787 54.8369 16.7108C55.2544 16.7108 55.6397 16.775 55.9609 16.8072C56.9243 16.9356 57.8234 17.1925 58.5941 17.5136C59.3648 17.8669 60.0392 18.2843 60.5851 18.8303C61.131 19.3762 61.5485 20.0184 61.8375 20.757C62.1265 21.4956 62.2549 22.3626 62.2549 23.326C62.2549 24.2894 62.1586 24.8995 61.9338 25.5418C61.7411 26.2161 61.42 26.8263 61.0347 27.3401C60.6172 27.8539 60.1355 28.3356 59.5575 28.7209C58.9795 29.1063 58.3051 29.4274 57.5344 29.6522C57.8876 29.8127 58.2409 30.0375 58.562 30.2944C58.8831 30.5513 59.1721 30.8403 59.4612 31.1936C59.7502 31.5468 60.0071 31.9643 60.264 32.4139C60.5209 32.8634 60.7456 33.3772 61.0025 33.9553L63.0578 38.74C63.2504 39.2217 63.3789 39.575 63.4431 39.7998C63.5073 40.0245 63.5394 40.1851 63.5394 40.3136V40.3457ZM57.149 23.8077C57.149 23.0049 56.9564 22.3305 56.6031 21.7846C56.2499 21.2387 55.6398 20.8533 54.8048 20.6286C54.5479 20.5643 54.2589 20.5001 53.9378 20.468C53.6167 20.4359 53.1671 20.4038 52.6212 20.4038H50.4054V27.308H52.9423C53.6488 27.308 54.2589 27.2116 54.7727 27.0511C55.2865 26.8905 55.7361 26.6336 56.0893 26.3446C56.4426 26.0235 56.6995 25.6702 56.8921 25.2528C57.0527 24.8353 57.149 24.3536 57.149 23.8077Z" fill="white"/>
<path d="M86.7224 40.2816C86.7224 40.4101 86.6903 40.5064 86.594 40.6349C86.4977 40.7312 86.3692 40.8275 86.1765 40.8918C85.9838 40.956 85.727 41.0202 85.4379 41.0523C85.1168 41.0844 84.7315 41.1165 84.2498 41.1165C83.7681 41.1165 83.3506 41.1165 83.0295 41.0523C82.7084 40.9881 82.4515 40.956 82.2909 40.8918C82.0982 40.8275 81.9698 40.7633 81.9056 40.6349C81.8092 40.5385 81.7771 40.4101 81.7771 40.2816V30.4552H72.6571V40.2816C72.6571 40.4101 72.625 40.5064 72.5287 40.6349C72.4645 40.7312 72.336 40.8275 72.1433 40.8918C71.9507 40.956 71.6938 41.0202 71.4047 41.0523C71.0836 41.0844 70.6983 41.1165 70.1845 41.1165C69.6707 41.1165 69.3174 41.1165 68.9963 41.0523C68.6752 40.9881 68.4183 40.956 68.2256 40.8918C68.0329 40.8275 67.9045 40.7633 67.8081 40.6349C67.7118 40.5385 67.6797 40.4101 67.6797 40.2816V17.289C67.6797 17.1606 67.7118 17.0642 67.8081 16.9358C67.9045 16.8395 68.0329 16.7431 68.2256 16.6789C68.4183 16.6147 68.6752 16.5504 68.9963 16.5183C69.3174 16.4862 69.7028 16.4541 70.1845 16.4541C70.6662 16.4541 71.0836 16.4541 71.4047 16.5183C71.7259 16.5504 71.9828 16.6147 72.1433 16.6789C72.336 16.7431 72.4645 16.8073 72.5287 16.9358C72.5929 17.0321 72.6571 17.1606 72.6571 17.289V26.2163H81.7771V17.289C81.7771 17.1606 81.8092 17.0642 81.9056 16.9358C82.0019 16.8395 82.1303 16.7431 82.2909 16.6789C82.4836 16.6147 82.7084 16.5504 83.0295 16.5183C83.3506 16.4862 83.7681 16.4541 84.2498 16.4541C84.7315 16.4541 85.1168 16.4541 85.4379 16.5183C85.7591 16.5504 86.016 16.6147 86.1765 16.6789C86.3692 16.7431 86.4977 16.8073 86.594 16.9358C86.6903 17.0321 86.7224 17.1606 86.7224 17.289V40.2816Z" fill="white"/>
<path d="M97.5174 40.2816C97.5174 40.4101 97.4853 40.5064 97.3889 40.6349C97.2926 40.7312 97.1641 40.8275 96.9715 40.8918C96.7788 40.956 96.5219 41.0202 96.2329 41.0523C95.9117 41.0844 95.5264 41.1165 95.0126 41.1165C94.4988 41.1165 94.1456 41.1165 93.8244 41.0523C93.5033 40.9881 93.2464 40.956 93.0537 40.8918C92.861 40.8275 92.7326 40.7633 92.6363 40.6349C92.5399 40.5385 92.5078 40.4101 92.5078 40.2816V17.289C92.5078 17.1606 92.5399 17.0642 92.6363 16.9358C92.7326 16.8395 92.861 16.7431 93.0537 16.6789C93.2464 16.6147 93.5033 16.5504 93.8244 16.5183C94.1456 16.4862 94.5309 16.4541 95.0126 16.4541C95.4943 16.4541 95.9117 16.4541 96.2329 16.5183C96.554 16.5504 96.8109 16.6147 96.9715 16.6789C97.1641 16.7431 97.2926 16.8073 97.3889 16.9358C97.4853 17.0321 97.5174 17.1606 97.5174 17.289V40.2816Z" fill="white"/>
<path d="M123.461 39.2536C123.461 39.5426 123.397 39.7995 123.3 40.0243C123.204 40.2491 123.076 40.4418 122.883 40.6023C122.69 40.7629 122.498 40.8592 122.273 40.9235C122.048 40.9877 121.791 41.0198 121.566 41.0198H119.447C118.997 41.0198 118.644 40.9877 118.323 40.8914C118.002 40.795 117.713 40.6345 117.424 40.4097C117.167 40.1849 116.878 39.8638 116.653 39.4784C116.396 39.0931 116.107 38.5792 115.818 37.937L109.749 26.5692C109.396 25.8948 109.042 25.1562 108.689 24.3855C108.336 23.6148 108.015 22.8441 107.726 22.1055H107.694C107.758 23.0047 107.79 23.9038 107.822 24.803C107.822 25.7021 107.854 26.6334 107.854 27.5646V40.3133C107.854 40.4418 107.822 40.5381 107.758 40.6666C107.694 40.7629 107.565 40.8592 107.405 40.9235C107.244 40.9877 107.019 41.0519 106.73 41.084C106.441 41.1161 106.056 41.1483 105.606 41.1483C105.157 41.1483 104.804 41.1483 104.515 41.084C104.226 41.0519 104.001 40.9877 103.84 40.9235C103.68 40.8592 103.551 40.7629 103.487 40.6666C103.423 40.5702 103.391 40.4418 103.391 40.3133V18.4447C103.391 17.8666 103.551 17.4171 103.904 17.1281C104.258 16.839 104.675 16.6785 105.189 16.6785H107.854C108.336 16.6785 108.721 16.7106 109.075 16.8069C109.396 16.9033 109.685 17.0317 109.942 17.2244C110.198 17.4171 110.455 17.674 110.68 17.9951C110.905 18.3162 111.13 18.7337 111.387 19.2154L116.139 28.1106C116.428 28.6565 116.685 29.1703 116.942 29.7162C117.199 30.23 117.456 30.7438 117.713 31.2897C117.97 31.8035 118.195 32.3173 118.451 32.8311C118.676 33.3449 118.933 33.8266 119.158 34.3404C119.126 33.4734 119.094 32.5421 119.062 31.5787C119.062 30.6153 119.062 29.7162 119.062 28.8491V17.4171C119.062 17.2886 119.094 17.1923 119.19 17.0638C119.254 16.9675 119.383 16.8712 119.575 16.8069C119.736 16.7427 119.993 16.6785 120.282 16.6464C120.571 16.6464 120.956 16.6143 121.406 16.6143C121.855 16.6143 122.176 16.6143 122.465 16.6464C122.754 16.6464 122.979 16.7427 123.14 16.8069C123.3 16.8712 123.397 16.9675 123.461 17.0638C123.525 17.1602 123.557 17.2886 123.557 17.4171V39.2857L123.461 39.2536Z" fill="white"/>
<path d="M151.205 28.5284C151.205 30.5515 150.948 32.3498 150.467 33.9554C149.953 35.561 149.214 36.9098 148.219 38.0016C147.223 39.1255 146.003 39.9604 144.526 40.5385C143.049 41.1165 141.379 41.4055 139.452 41.4055C137.525 41.4055 135.92 41.1486 134.507 40.6669C133.094 40.1852 131.906 39.4145 130.974 38.3869C130.043 37.3593 129.337 36.0748 128.855 34.5013C128.373 32.9278 128.148 31.0653 128.148 28.9458C128.148 26.8264 128.405 25.2208 128.887 23.6152C129.401 22.0416 130.139 20.6929 131.135 19.6011C132.13 18.5093 133.351 17.6422 134.828 17.0642C136.305 16.4862 137.975 16.165 139.902 16.165C141.828 16.165 143.37 16.4219 144.783 16.9036C146.196 17.3853 147.384 18.156 148.315 19.1515C149.246 20.1791 149.985 21.4636 150.467 23.005C150.948 24.5464 151.205 26.3768 151.205 28.4963V28.5284ZM146.003 28.7853C146.003 27.5008 145.907 26.3447 145.714 25.285C145.521 24.2253 145.168 23.3261 144.686 22.5876C144.205 21.849 143.562 21.2709 142.76 20.8535C141.957 20.436 140.961 20.2433 139.741 20.2433C138.521 20.2433 137.493 20.4681 136.69 20.9177C135.888 21.3673 135.213 21.9774 134.699 22.7481C134.186 23.5188 133.832 24.418 133.64 25.4135C133.447 26.4411 133.319 27.5329 133.319 28.6568C133.319 29.7808 133.415 31.1937 133.608 32.2534C133.8 33.3131 134.153 34.2123 134.635 34.983C135.117 35.7216 135.759 36.2996 136.562 36.7171C137.365 37.1024 138.36 37.2951 139.581 37.2951C140.801 37.2951 141.828 37.0703 142.631 36.6207C143.434 36.1712 144.108 35.561 144.622 34.7903C145.136 34.0196 145.489 33.1205 145.682 32.0608C145.875 31.001 146.003 29.9092 146.003 28.7532V28.7853Z" fill="white"/>
<path d="M183.543 40.6022C183.543 40.6665 183.543 40.7307 183.478 40.7949C183.446 40.8591 183.382 40.9233 183.286 40.9555C183.189 40.9876 183.061 41.0197 182.932 41.0518C182.804 41.0518 182.611 41.0839 182.386 41.0839C182.162 41.0839 182.001 41.0839 181.873 41.0518C181.712 41.0518 181.616 40.9876 181.519 40.9555C181.423 40.9233 181.359 40.8591 181.327 40.7949C181.295 40.7307 181.263 40.6665 181.263 40.6022V18.6372H181.23L171.661 40.7307C171.661 40.7949 171.597 40.827 171.532 40.8591C171.468 40.8912 171.404 40.9555 171.34 40.9876C171.243 40.9876 171.147 41.0518 171.019 41.0518C170.89 41.0518 170.762 41.0518 170.601 41.0518C170.441 41.0518 170.28 41.0518 170.152 41.0518C170.023 41.0518 169.927 41.0197 169.83 40.9876C169.734 40.9876 169.67 40.9234 169.638 40.8591C169.574 40.827 169.541 40.7628 169.541 40.7307L160.421 18.6372V40.6022C160.421 40.6665 160.421 40.7307 160.357 40.7949C160.325 40.8591 160.261 40.9233 160.165 40.9555C160.068 40.9876 159.94 41.0197 159.811 41.0518C159.683 41.0518 159.49 41.0839 159.233 41.0839C158.976 41.0839 158.848 41.0839 158.687 41.0518C158.559 41.0518 158.43 40.9876 158.334 40.9555C158.238 40.9233 158.174 40.8591 158.141 40.7949C158.141 40.7307 158.109 40.6665 158.109 40.6022V17.8023C158.109 17.3527 158.238 17.0316 158.463 16.871C158.687 16.7105 158.944 16.6141 159.169 16.6141H160.421C160.743 16.6141 161 16.6463 161.256 16.7105C161.481 16.7747 161.706 16.871 161.899 16.9995C162.091 17.1279 162.22 17.2885 162.348 17.4812C162.477 17.6739 162.573 17.8986 162.701 18.1234L170.73 37.4552H170.826L179.207 18.1877C179.336 17.8986 179.464 17.6417 179.625 17.417C179.753 17.2243 179.914 17.0316 180.074 16.9032C180.235 16.7747 180.395 16.6784 180.588 16.6463C180.781 16.582 180.974 16.582 181.166 16.582H182.547C182.675 16.582 182.772 16.582 182.9 16.6463C183.029 16.6784 183.125 16.7426 183.254 16.8389C183.35 16.9353 183.446 17.0637 183.51 17.1922C183.575 17.3527 183.607 17.5454 183.607 17.7702V40.5701L183.543 40.6022Z" fill="white"/>
<path d="M204.257 39.9601C204.257 40.1207 204.257 40.2812 204.225 40.3776C204.225 40.506 204.161 40.6023 204.097 40.6987C204.033 40.795 203.968 40.8592 203.904 40.8914C203.84 40.9235 203.744 40.9556 203.647 40.9556H192.247C192.022 40.9556 191.798 40.8592 191.541 40.6987C191.316 40.5381 191.188 40.217 191.188 39.7674V17.8024C191.188 17.3528 191.316 17.0317 191.541 16.8712C191.766 16.7106 192.022 16.6143 192.247 16.6143H203.487C203.583 16.6143 203.647 16.6143 203.744 16.6785C203.808 16.7106 203.872 16.7748 203.936 16.8712C204 16.9675 204.033 17.0638 204.065 17.1923C204.065 17.3207 204.097 17.4813 204.097 17.6419C204.097 17.8024 204.097 17.963 204.065 18.0593C204.065 18.1878 204 18.2841 203.936 18.3805C203.872 18.4768 203.808 18.5089 203.744 18.5731C203.679 18.6052 203.583 18.6373 203.487 18.6373H193.5V27.2114H202.106C202.202 27.2114 202.298 27.2114 202.363 27.2756C202.427 27.3077 202.491 27.372 202.555 27.4683C202.62 27.5646 202.652 27.661 202.684 27.7894C202.684 27.9179 202.716 28.0784 202.716 28.239C202.716 28.3996 202.716 28.528 202.684 28.6565C202.684 28.7849 202.62 28.8813 202.555 28.9455C202.491 29.0097 202.427 29.0739 202.363 29.106C202.298 29.1382 202.202 29.1703 202.106 29.1703H193.5V38.8683H203.647C203.744 38.8683 203.808 38.8683 203.904 38.9325C203.968 38.9646 204.033 39.0288 204.097 39.1252C204.161 39.2215 204.193 39.3178 204.225 39.4463C204.225 39.5747 204.257 39.7353 204.257 39.8959V39.9601Z" fill="white"/>
<path d="M228.465 28.4316C228.465 30.4868 228.208 32.2851 227.694 33.8265C227.18 35.4 226.41 36.6845 225.414 37.7442C224.419 38.8039 223.166 39.6067 221.689 40.1205C220.212 40.6665 218.446 40.9234 216.423 40.9234H211.638C211.413 40.9234 211.188 40.827 210.931 40.6665C210.707 40.5059 210.578 40.1848 210.578 39.7352V17.7702C210.578 17.3206 210.707 16.9995 210.931 16.8389C211.156 16.6784 211.413 16.582 211.638 16.582H216.744C218.799 16.582 220.565 16.871 221.978 17.417C223.391 17.995 224.579 18.7657 225.543 19.8254C226.506 20.8851 227.212 22.1054 227.726 23.5505C228.24 24.9955 228.465 26.6012 228.465 28.3995V28.4316ZM225.992 28.56C225.992 27.1471 225.799 25.8304 225.446 24.6102C225.093 23.3899 224.547 22.3623 223.776 21.4631C223.038 20.5961 222.074 19.8896 220.95 19.4079C219.794 18.9262 218.349 18.6693 216.583 18.6693H212.826V38.9003H216.583C218.253 38.9003 219.634 38.7076 220.79 38.2901C221.946 37.8727 222.909 37.2625 223.648 36.3955C224.419 35.5284 224.997 34.4687 225.382 33.1842C225.767 31.8997 225.96 30.3262 225.96 28.56H225.992Z" fill="white"/>
<path d="M236.789 40.6025C236.789 40.6667 236.789 40.7309 236.724 40.7952C236.692 40.8594 236.628 40.9236 236.532 40.9557C236.435 40.9878 236.339 41.0199 236.179 41.0521C236.05 41.0521 235.857 41.0842 235.633 41.0842C235.408 41.0842 235.247 41.0842 235.087 41.0521C234.926 41.0521 234.83 40.9878 234.733 40.9557C234.637 40.9236 234.573 40.8594 234.541 40.7952C234.509 40.7309 234.477 40.6667 234.477 40.6025V16.9998C234.477 16.9355 234.477 16.8713 234.541 16.8071C234.573 16.7429 234.669 16.6786 234.733 16.6465C234.798 16.6144 234.958 16.5823 235.087 16.5502C235.215 16.5502 235.408 16.5181 235.601 16.5181C235.793 16.5181 236.018 16.5181 236.146 16.5502C236.275 16.5502 236.403 16.6144 236.5 16.6465C236.596 16.6786 236.66 16.7429 236.692 16.8071C236.724 16.8713 236.757 16.9355 236.757 16.9998V40.6025H236.789Z" fill="white"/>
<path d="M260.39 37.648C260.39 37.7765 260.39 37.9049 260.39 38.0334C260.39 38.1618 260.39 38.2582 260.326 38.3224C260.326 38.4187 260.262 38.483 260.23 38.5793C260.198 38.6435 260.101 38.7399 259.973 38.8683C259.844 38.9968 259.587 39.1894 259.202 39.4464C258.785 39.7033 258.303 39.9923 257.693 40.2492C257.083 40.5061 256.376 40.7309 255.605 40.9235C254.835 41.1162 253.936 41.2125 253.004 41.2125C251.463 41.2125 250.082 40.9556 248.862 40.4097C247.609 39.8638 246.55 39.0931 245.683 38.0655C244.816 37.0379 244.141 35.7855 243.66 34.2762C243.178 32.7669 242.953 31.065 242.953 29.1061C242.953 27.1472 243.21 25.3489 243.692 23.7754C244.206 22.2019 244.912 20.8532 245.811 19.7614C246.71 18.6695 247.802 17.8346 249.087 17.2245C250.371 16.6464 251.752 16.3574 253.325 16.3574C254.899 16.3574 254.771 16.4216 255.445 16.5501C256.119 16.6785 256.762 16.8712 257.34 17.0639C257.918 17.2887 258.431 17.5135 258.881 17.8025C259.331 18.0915 259.652 18.3163 259.812 18.4768C259.973 18.6374 260.101 18.7659 260.133 18.8301C260.165 18.8943 260.198 18.9907 260.23 19.087C260.23 19.1833 260.262 19.2797 260.294 19.4081C260.294 19.5366 260.294 19.665 260.294 19.8256C260.294 19.9861 260.294 20.1467 260.294 20.2752C260.294 20.4036 260.23 20.5321 260.198 20.6284C260.165 20.7247 260.101 20.789 260.037 20.8532C259.973 20.9174 259.909 20.9174 259.812 20.9174C259.652 20.9174 259.395 20.789 259.074 20.5321C258.753 20.2752 258.335 19.9861 257.821 19.665C257.307 19.3439 256.665 19.0549 255.927 18.798C255.188 18.5411 254.289 18.4126 253.229 18.4126C252.169 18.4126 251.045 18.6374 250.082 19.087C249.119 19.5366 248.316 20.2109 247.642 21.1101C246.967 22.0092 246.421 23.1011 246.036 24.4177C245.651 25.7343 245.458 27.2115 245.458 28.9134C245.458 30.6154 245.618 31.9641 245.972 33.2165C246.325 34.4689 246.839 35.5286 247.481 36.3957C248.155 37.2627 248.958 37.9049 249.954 38.3545C250.949 38.8041 252.041 39.0289 253.293 39.0289C254.546 39.0289 255.188 38.9004 255.959 38.6435C256.729 38.3866 257.372 38.0976 257.918 37.7765C258.464 37.4554 258.913 37.1664 259.234 36.9095C259.587 36.6526 259.844 36.5241 260.037 36.5241C260.23 36.5241 260.165 36.5241 260.23 36.5562C260.294 36.5562 260.326 36.6526 260.358 36.7168C260.358 36.8131 260.422 36.9095 260.422 37.0379C260.422 37.1664 260.422 37.359 260.422 37.5517L260.39 37.648Z" fill="white"/>
<path d="M282.899 40.2168C282.964 40.4094 282.996 40.57 282.996 40.6663C282.996 40.7948 282.931 40.8911 282.867 40.9232C282.771 40.9875 282.675 41.0196 282.482 41.0517C282.289 41.0838 282.097 41.0517 281.84 41.0517C281.583 41.0517 281.358 41.0517 281.197 41.0517C281.037 41.0517 280.908 41.0196 280.844 40.9553C280.748 40.9232 280.684 40.859 280.651 40.7948C280.619 40.7306 280.555 40.6663 280.523 40.57L278.179 34.0833H267.485L265.237 40.5379C265.237 40.6342 265.173 40.6984 265.109 40.7627C265.045 40.8269 264.981 40.8911 264.916 40.9232C264.82 40.9553 264.692 40.9875 264.563 41.0196C264.403 41.0196 264.21 41.0517 263.985 41.0517C263.76 41.0517 263.503 41.0517 263.311 41.0196C263.15 41.0196 263.022 40.9553 262.925 40.8911C262.829 40.8269 262.797 40.7306 262.797 40.6342C262.797 40.5058 262.797 40.3773 262.893 40.1846L271.403 17.0315C271.435 16.9352 271.499 16.8388 271.564 16.7746C271.628 16.7104 271.724 16.6461 271.853 16.614C271.981 16.5819 272.11 16.5498 272.27 16.5177C272.431 16.4856 272.623 16.5177 272.848 16.5177C273.073 16.5177 273.266 16.5177 273.426 16.5177C273.587 16.5177 273.747 16.5498 273.844 16.614C273.972 16.6461 274.068 16.7104 274.133 16.7746C274.197 16.8388 274.261 16.9352 274.293 17.0315L282.803 40.1846L282.899 40.2168ZM272.784 19.0867L268.192 32.1886H277.504L272.816 19.0867H272.784Z" fill="white"/>
</svg>
